<mxfile host="app.diagrams.net" agent="Mozilla/5.0 (Macintosh; Intel Mac OS X 10.15; rv:136.0) Gecko/20100101 Firefox/136.0" version="26.1.1">
  <diagram name="Página-1" id="uKsRqTL9qKyd-Qh1qYfX">
    <mxGraphModel dx="1181" dy="904" grid="1" gridSize="10" guides="1" tooltips="1" connect="1" arrows="1" fold="1" page="1" pageScale="1" pageWidth="827" pageHeight="1169" math="0" shadow="0">
      <root>
        <mxCell id="0" />
        <mxCell id="1" parent="0" />
        <mxCell id="KU3A_nU0eoKDWbTwhIvI-1" value="&lt;div&gt;Login System&lt;/div&gt;&lt;div&gt;&lt;br&gt;&lt;/div&gt;" style="shape=umlActor;verticalLabelPosition=bottom;verticalAlign=top;html=1;outlineConnect=0;" parent="1" vertex="1">
          <mxGeometry x="120" y="731" width="30" height="60" as="geometry" />
        </mxCell>
        <mxCell id="KU3A_nU0eoKDWbTwhIvI-2" value="Distribuir cartas a novo jogador" style="ellipse;whiteSpace=wrap;html=1;" parent="1" vertex="1">
          <mxGeometry x="335" y="711" width="120" height="80" as="geometry" />
        </mxCell>
        <mxCell id="KU3A_nU0eoKDWbTwhIvI-3" style="rounded=0;orthogonalLoop=1;jettySize=auto;html=1;exitX=1;exitY=0.3333333333333333;exitDx=0;exitDy=0;exitPerimeter=0;entryX=0;entryY=0.5;entryDx=0;entryDy=0;endArrow=none;endFill=0;" parent="1" source="KU3A_nU0eoKDWbTwhIvI-1" target="KU3A_nU0eoKDWbTwhIvI-2" edge="1">
          <mxGeometry relative="1" as="geometry" />
        </mxCell>
        <mxCell id="KU3A_nU0eoKDWbTwhIvI-4" value="&lt;div&gt;POKEAPI&lt;/div&gt;&lt;div&gt;&lt;br&gt;&lt;/div&gt;" style="shape=umlActor;verticalLabelPosition=bottom;verticalAlign=top;html=1;outlineConnect=0;" parent="1" vertex="1">
          <mxGeometry x="670" y="731" width="30" height="60" as="geometry" />
        </mxCell>
        <mxCell id="KU3A_nU0eoKDWbTwhIvI-5" style="rounded=0;orthogonalLoop=1;jettySize=auto;html=1;exitX=1;exitY=0.5;exitDx=0;exitDy=0;entryX=0;entryY=0.3333333333333333;entryDx=0;entryDy=0;entryPerimeter=0;endArrow=none;endFill=0;" parent="1" source="KU3A_nU0eoKDWbTwhIvI-2" target="KU3A_nU0eoKDWbTwhIvI-4" edge="1">
          <mxGeometry relative="1" as="geometry" />
        </mxCell>
        <mxCell id="KU3A_nU0eoKDWbTwhIvI-6" value="&lt;div&gt;Other Systems&lt;/div&gt;&lt;div&gt;&lt;br&gt;&lt;/div&gt;" style="shape=umlActor;verticalLabelPosition=bottom;verticalAlign=top;html=1;outlineConnect=0;" parent="1" vertex="1">
          <mxGeometry x="120" y="485" width="30" height="60" as="geometry" />
        </mxCell>
        <mxCell id="KU3A_nU0eoKDWbTwhIvI-7" value="Visualizar Cartas" style="ellipse;whiteSpace=wrap;html=1;" parent="1" vertex="1">
          <mxGeometry x="330" y="511" width="120" height="80" as="geometry" />
        </mxCell>
        <mxCell id="KU3A_nU0eoKDWbTwhIvI-8" style="rounded=0;orthogonalLoop=1;jettySize=auto;html=1;exitX=1;exitY=0.3333333333333333;exitDx=0;exitDy=0;exitPerimeter=0;entryX=0;entryY=0.5;entryDx=0;entryDy=0;endArrow=none;endFill=0;" parent="1" source="KU3A_nU0eoKDWbTwhIvI-6" target="KU3A_nU0eoKDWbTwhIvI-7" edge="1">
          <mxGeometry relative="1" as="geometry" />
        </mxCell>
        <mxCell id="KU3A_nU0eoKDWbTwhIvI-10" style="edgeStyle=none;shape=connector;rounded=0;orthogonalLoop=1;jettySize=auto;html=1;exitX=0;exitY=0.3333333333333333;exitDx=0;exitDy=0;exitPerimeter=0;entryX=1;entryY=0.5;entryDx=0;entryDy=0;strokeColor=default;align=center;verticalAlign=middle;fontFamily=Helvetica;fontSize=11;fontColor=default;labelBackgroundColor=default;endArrow=none;endFill=0;" parent="1" source="KU3A_nU0eoKDWbTwhIvI-11" target="KU3A_nU0eoKDWbTwhIvI-14" edge="1">
          <mxGeometry relative="1" as="geometry" />
        </mxCell>
        <mxCell id="KU3A_nU0eoKDWbTwhIvI-11" value="DATABASE" style="shape=umlActor;verticalLabelPosition=bottom;verticalAlign=top;html=1;outlineConnect=0;" parent="1" vertex="1">
          <mxGeometry x="670" y="620" width="30" height="60" as="geometry" />
        </mxCell>
        <mxCell id="KU3A_nU0eoKDWbTwhIvI-12" style="rounded=0;orthogonalLoop=1;jettySize=auto;html=1;exitX=1;exitY=0.5;exitDx=0;exitDy=0;entryX=0;entryY=0.3333333333333333;entryDx=0;entryDy=0;entryPerimeter=0;endArrow=none;endFill=0;" parent="1" source="KU3A_nU0eoKDWbTwhIvI-7" target="KU3A_nU0eoKDWbTwhIvI-11" edge="1">
          <mxGeometry relative="1" as="geometry" />
        </mxCell>
        <mxCell id="KU3A_nU0eoKDWbTwhIvI-13" value="Trading system" style="shape=umlActor;verticalLabelPosition=bottom;verticalAlign=top;html=1;outlineConnect=0;" parent="1" vertex="1">
          <mxGeometry x="120" y="631" width="30" height="60" as="geometry" />
        </mxCell>
        <mxCell id="KU3A_nU0eoKDWbTwhIvI-14" value="Registrar troca de cartas" style="ellipse;whiteSpace=wrap;html=1;" parent="1" vertex="1">
          <mxGeometry x="330" y="611" width="120" height="80" as="geometry" />
        </mxCell>
        <mxCell id="KU3A_nU0eoKDWbTwhIvI-15" style="rounded=0;orthogonalLoop=1;jettySize=auto;html=1;exitX=1;exitY=0.3333333333333333;exitDx=0;exitDy=0;exitPerimeter=0;entryX=0;entryY=0.5;entryDx=0;entryDy=0;endArrow=none;endFill=0;" parent="1" source="KU3A_nU0eoKDWbTwhIvI-13" target="KU3A_nU0eoKDWbTwhIvI-14" edge="1">
          <mxGeometry relative="1" as="geometry" />
        </mxCell>
        <mxCell id="KU3A_nU0eoKDWbTwhIvI-16" value="&lt;font style=&quot;font-size: 24px;&quot;&gt;DIAGRAMA DE ATIVIDADES&lt;/font&gt;" style="text;html=1;align=center;verticalAlign=middle;whiteSpace=wrap;rounded=0;" parent="1" vertex="1">
          <mxGeometry x="370" y="1280" width="60" height="30" as="geometry" />
        </mxCell>
        <mxCell id="KU3A_nU0eoKDWbTwhIvI-17" style="edgeStyle=orthogonalEdgeStyle;rounded=0;orthogonalLoop=1;jettySize=auto;html=1;exitX=1;exitY=0.5;exitDx=0;exitDy=0;" parent="1" source="KU3A_nU0eoKDWbTwhIvI-18" edge="1">
          <mxGeometry relative="1" as="geometry">
            <mxPoint x="190" y="1454.608695652174" as="targetPoint" />
          </mxGeometry>
        </mxCell>
        <mxCell id="KU3A_nU0eoKDWbTwhIvI-18" value="" style="ellipse;whiteSpace=wrap;html=1;aspect=fixed;" parent="1" vertex="1">
          <mxGeometry x="105" y="1440" width="30" height="30" as="geometry" />
        </mxCell>
        <mxCell id="KU3A_nU0eoKDWbTwhIvI-19" value="USUÁRIO CADASTRA NO SISTEMA" style="text;html=1;align=center;verticalAlign=middle;whiteSpace=wrap;rounded=0;" parent="1" vertex="1">
          <mxGeometry x="90" y="1390" width="60" height="30" as="geometry" />
        </mxCell>
        <mxCell id="KU3A_nU0eoKDWbTwhIvI-20" style="edgeStyle=orthogonalEdgeStyle;rounded=0;orthogonalLoop=1;jettySize=auto;html=1;exitX=1;exitY=0.5;exitDx=0;exitDy=0;" parent="1" source="KU3A_nU0eoKDWbTwhIvI-21" edge="1">
          <mxGeometry relative="1" as="geometry">
            <mxPoint x="370" y="1454.608695652174" as="targetPoint" />
          </mxGeometry>
        </mxCell>
        <mxCell id="KU3A_nU0eoKDWbTwhIvI-21" value="ENTRA NA FILA DO RABBITMQ" style="rounded=1;whiteSpace=wrap;html=1;" parent="1" vertex="1">
          <mxGeometry x="190" y="1425" width="120" height="60" as="geometry" />
        </mxCell>
        <mxCell id="KU3A_nU0eoKDWbTwhIvI-22" style="edgeStyle=orthogonalEdgeStyle;rounded=0;orthogonalLoop=1;jettySize=auto;html=1;exitX=1;exitY=0.5;exitDx=0;exitDy=0;entryX=0;entryY=0.5;entryDx=0;entryDy=0;" parent="1" source="KU3A_nU0eoKDWbTwhIvI-23" target="KU3A_nU0eoKDWbTwhIvI-51" edge="1">
          <mxGeometry relative="1" as="geometry" />
        </mxCell>
        <mxCell id="KU3A_nU0eoKDWbTwhIvI-23" value="ATRIBUIDAS 5 CARTAS ALEATÓRIAS" style="rounded=1;whiteSpace=wrap;html=1;" parent="1" vertex="1">
          <mxGeometry x="370" y="1425" width="120" height="60" as="geometry" />
        </mxCell>
        <mxCell id="KU3A_nU0eoKDWbTwhIvI-24" style="edgeStyle=orthogonalEdgeStyle;rounded=0;orthogonalLoop=1;jettySize=auto;html=1;exitX=1;exitY=0.5;exitDx=0;exitDy=0;" parent="1" edge="1">
          <mxGeometry relative="1" as="geometry">
            <mxPoint x="200" y="1607" as="targetPoint" />
            <mxPoint x="136.9999999999999" y="1607" as="sourcePoint" />
            <Array as="points">
              <mxPoint x="192" y="1607" />
            </Array>
          </mxGeometry>
        </mxCell>
        <mxCell id="KU3A_nU0eoKDWbTwhIvI-25" value="" style="ellipse;whiteSpace=wrap;html=1;aspect=fixed;" parent="1" vertex="1">
          <mxGeometry x="105" y="1590" width="30" height="30" as="geometry" />
        </mxCell>
        <mxCell id="KU3A_nU0eoKDWbTwhIvI-26" value="&lt;div&gt;SISTEMA DE TROCAS ENVIA TROCA DE CARTAS&lt;/div&gt;&lt;div&gt;&lt;br&gt;&lt;/div&gt;" style="text;html=1;align=center;verticalAlign=middle;whiteSpace=wrap;rounded=0;" parent="1" vertex="1">
          <mxGeometry x="60" y="1540" width="130" height="30" as="geometry" />
        </mxCell>
        <mxCell id="KU3A_nU0eoKDWbTwhIvI-27" style="edgeStyle=orthogonalEdgeStyle;rounded=0;orthogonalLoop=1;jettySize=auto;html=1;exitX=1;exitY=0.5;exitDx=0;exitDy=0;" parent="1" source="KU3A_nU0eoKDWbTwhIvI-28" edge="1">
          <mxGeometry relative="1" as="geometry">
            <mxPoint x="369.9999999999999" y="1605.3030303030305" as="targetPoint" />
          </mxGeometry>
        </mxCell>
        <mxCell id="KU3A_nU0eoKDWbTwhIvI-28" value="ALTERAR COLUNAS DE CARTAS DOS JOGADORES" style="rounded=1;whiteSpace=wrap;html=1;" parent="1" vertex="1">
          <mxGeometry x="200" y="1575" width="120" height="60" as="geometry" />
        </mxCell>
        <mxCell id="KU3A_nU0eoKDWbTwhIvI-29" value="RETORNA OK" style="rounded=1;whiteSpace=wrap;html=1;" parent="1" vertex="1">
          <mxGeometry x="370" y="1575" width="120" height="60" as="geometry" />
        </mxCell>
        <mxCell id="KU3A_nU0eoKDWbTwhIvI-34" value="&lt;font style=&quot;font-size: 20px;&quot;&gt;DIAGRAMA DE CLASSES&lt;/font&gt;" style="text;html=1;align=center;verticalAlign=middle;whiteSpace=wrap;rounded=0;" parent="1" vertex="1">
          <mxGeometry x="370" y="1840" width="60" height="30" as="geometry" />
        </mxCell>
        <mxCell id="KU3A_nU0eoKDWbTwhIvI-51" value="SALVO NO BANCO DE DADOS" style="rounded=1;whiteSpace=wrap;html=1;" parent="1" vertex="1">
          <mxGeometry x="540" y="1425" width="120" height="60" as="geometry" />
        </mxCell>
        <mxCell id="KU3A_nU0eoKDWbTwhIvI-52" value="&lt;font style=&quot;font-size: 56px;&quot;&gt;Casos de uso&lt;/font&gt;" style="text;html=1;align=center;verticalAlign=middle;whiteSpace=wrap;rounded=0;" parent="1" vertex="1">
          <mxGeometry x="225" y="400" width="340" height="30" as="geometry" />
        </mxCell>
        <mxCell id="KU3A_nU0eoKDWbTwhIvI-53" value="&lt;font style=&quot;font-size: 20px;&quot;&gt;Sistema de distribuição de cartas&lt;/font&gt;" style="text;html=1;align=center;verticalAlign=middle;whiteSpace=wrap;rounded=0;fontFamily=Helvetica;fontSize=11;fontColor=default;labelBackgroundColor=default;" parent="1" vertex="1">
          <mxGeometry x="285" y="860" width="230" height="30" as="geometry" />
        </mxCell>
        <mxCell id="KU3A_nU0eoKDWbTwhIvI-54" value="Extends" style="endArrow=block;endSize=16;endFill=0;html=1;rounded=0;strokeColor=default;align=center;verticalAlign=middle;fontFamily=Helvetica;fontSize=11;fontColor=default;labelBackgroundColor=default;exitX=0.5;exitY=0;exitDx=0;exitDy=0;exitPerimeter=0;" parent="1" source="KU3A_nU0eoKDWbTwhIvI-13" target="KU3A_nU0eoKDWbTwhIvI-6" edge="1">
          <mxGeometry width="160" relative="1" as="geometry">
            <mxPoint x="320" y="660" as="sourcePoint" />
            <mxPoint x="480" y="660" as="targetPoint" />
          </mxGeometry>
        </mxCell>
        <mxCell id="KU3A_nU0eoKDWbTwhIvI-55" value="distribuição cartas" style="shape=umlFrame;whiteSpace=wrap;html=1;pointerEvents=0;fontFamily=Helvetica;fontSize=11;fontColor=default;labelBackgroundColor=default;" parent="1" vertex="1">
          <mxGeometry x="247.5" y="485" width="305" height="330" as="geometry" />
        </mxCell>
        <mxCell id="KU3A_nU0eoKDWbTwhIvI-56" value="&lt;div&gt;Other Systems&lt;/div&gt;&lt;div&gt;&lt;br&gt;&lt;/div&gt;" style="shape=umlActor;verticalLabelPosition=bottom;verticalAlign=top;html=1;outlineConnect=0;" parent="1" vertex="1">
          <mxGeometry x="920" y="1782" width="30" height="60" as="geometry" />
        </mxCell>
        <mxCell id="KU3A_nU0eoKDWbTwhIvI-57" value="ENDPOINT GET/cards/:id" style="shape=umlBoundary;whiteSpace=wrap;html=1;fontFamily=Helvetica;fontSize=11;fontColor=default;labelBackgroundColor=default;" parent="1" vertex="1">
          <mxGeometry x="1040" y="1772" width="100" height="80" as="geometry" />
        </mxCell>
        <mxCell id="KU3A_nU0eoKDWbTwhIvI-58" style="edgeStyle=none;shape=connector;rounded=0;orthogonalLoop=1;jettySize=auto;html=1;entryX=0;entryY=0.5;entryDx=0;entryDy=0;strokeColor=default;align=center;verticalAlign=middle;fontFamily=Helvetica;fontSize=11;fontColor=default;labelBackgroundColor=default;endArrow=none;endFill=0;" parent="1" source="KU3A_nU0eoKDWbTwhIvI-59" target="KU3A_nU0eoKDWbTwhIvI-61" edge="1">
          <mxGeometry relative="1" as="geometry" />
        </mxCell>
        <mxCell id="KU3A_nU0eoKDWbTwhIvI-59" value="Card control" style="ellipse;shape=umlControl;whiteSpace=wrap;html=1;fontFamily=Helvetica;fontSize=11;fontColor=default;labelBackgroundColor=default;" parent="1" vertex="1">
          <mxGeometry x="1240" y="1772" width="70" height="80" as="geometry" />
        </mxCell>
        <mxCell id="KU3A_nU0eoKDWbTwhIvI-60" style="edgeStyle=none;shape=connector;rounded=0;orthogonalLoop=1;jettySize=auto;html=1;entryX=1.037;entryY=0.509;entryDx=0;entryDy=0;entryPerimeter=0;strokeColor=default;align=center;verticalAlign=middle;fontFamily=Helvetica;fontSize=11;fontColor=default;labelBackgroundColor=default;endArrow=none;endFill=0;" parent="1" source="KU3A_nU0eoKDWbTwhIvI-59" target="KU3A_nU0eoKDWbTwhIvI-57" edge="1">
          <mxGeometry relative="1" as="geometry" />
        </mxCell>
        <mxCell id="KU3A_nU0eoKDWbTwhIvI-61" value="User" style="ellipse;shape=umlEntity;whiteSpace=wrap;html=1;fontFamily=Helvetica;fontSize=11;fontColor=default;labelBackgroundColor=default;" parent="1" vertex="1">
          <mxGeometry x="1380" y="1772" width="80" height="80" as="geometry" />
        </mxCell>
        <mxCell id="KU3A_nU0eoKDWbTwhIvI-62" style="edgeStyle=none;shape=connector;rounded=0;orthogonalLoop=1;jettySize=auto;html=1;entryX=1;entryY=0.5;entryDx=0;entryDy=0;strokeColor=default;align=center;verticalAlign=middle;fontFamily=Helvetica;fontSize=11;fontColor=default;labelBackgroundColor=default;endArrow=none;endFill=0;" parent="1" source="KU3A_nU0eoKDWbTwhIvI-63" target="KU3A_nU0eoKDWbTwhIvI-61" edge="1">
          <mxGeometry relative="1" as="geometry" />
        </mxCell>
        <mxCell id="KU3A_nU0eoKDWbTwhIvI-63" value="DATABASE" style="shape=umlActor;verticalLabelPosition=bottom;verticalAlign=top;html=1;outlineConnect=0;" parent="1" vertex="1">
          <mxGeometry x="1530" y="1782" width="30" height="60" as="geometry" />
        </mxCell>
        <mxCell id="KU3A_nU0eoKDWbTwhIvI-64" value="DATABASE" style="shape=umlActor;verticalLabelPosition=bottom;verticalAlign=top;html=1;outlineConnect=0;" parent="1" vertex="1">
          <mxGeometry x="1620" y="1989" width="30" height="60" as="geometry" />
        </mxCell>
        <mxCell id="KU3A_nU0eoKDWbTwhIvI-65" style="edgeStyle=none;shape=connector;rounded=0;orthogonalLoop=1;jettySize=auto;html=1;strokeColor=default;align=center;verticalAlign=middle;fontFamily=Helvetica;fontSize=11;fontColor=default;labelBackgroundColor=default;endArrow=none;endFill=0;" parent="1" source="KU3A_nU0eoKDWbTwhIvI-66" target="KU3A_nU0eoKDWbTwhIvI-67" edge="1">
          <mxGeometry relative="1" as="geometry" />
        </mxCell>
        <mxCell id="KU3A_nU0eoKDWbTwhIvI-66" value="Trading system" style="shape=umlActor;verticalLabelPosition=bottom;verticalAlign=top;html=1;outlineConnect=0;" parent="1" vertex="1">
          <mxGeometry x="880" y="1987" width="30" height="60" as="geometry" />
        </mxCell>
        <mxCell id="KU3A_nU0eoKDWbTwhIvI-67" value="ENDPOINT patch/cards/:id" style="shape=umlBoundary;whiteSpace=wrap;html=1;fontFamily=Helvetica;fontSize=11;fontColor=default;labelBackgroundColor=default;" parent="1" vertex="1">
          <mxGeometry x="1000" y="1977" width="100" height="80" as="geometry" />
        </mxCell>
        <mxCell id="wEIP7FNeAzmG4lm5_kcX-12" style="rounded=0;orthogonalLoop=1;jettySize=auto;html=1;entryX=0;entryY=0.5;entryDx=0;entryDy=0;endArrow=none;startFill=0;" edge="1" parent="1" source="KU3A_nU0eoKDWbTwhIvI-68" target="KU3A_nU0eoKDWbTwhIvI-82">
          <mxGeometry relative="1" as="geometry" />
        </mxCell>
        <mxCell id="KU3A_nU0eoKDWbTwhIvI-68" value="Card control" style="ellipse;shape=umlControl;whiteSpace=wrap;html=1;fontFamily=Helvetica;fontSize=11;fontColor=default;labelBackgroundColor=default;" parent="1" vertex="1">
          <mxGeometry x="1170" y="1977" width="70" height="80" as="geometry" />
        </mxCell>
        <mxCell id="KU3A_nU0eoKDWbTwhIvI-69" style="edgeStyle=none;shape=connector;rounded=0;orthogonalLoop=1;jettySize=auto;html=1;entryX=1.037;entryY=0.501;entryDx=0;entryDy=0;entryPerimeter=0;strokeColor=default;align=center;verticalAlign=middle;fontFamily=Helvetica;fontSize=11;fontColor=default;labelBackgroundColor=default;endArrow=none;endFill=0;" parent="1" source="KU3A_nU0eoKDWbTwhIvI-68" target="KU3A_nU0eoKDWbTwhIvI-67" edge="1">
          <mxGeometry relative="1" as="geometry" />
        </mxCell>
        <mxCell id="KU3A_nU0eoKDWbTwhIvI-70" style="edgeStyle=none;shape=connector;rounded=0;orthogonalLoop=1;jettySize=auto;html=1;strokeColor=default;align=center;verticalAlign=middle;fontFamily=Helvetica;fontSize=11;fontColor=default;labelBackgroundColor=default;endArrow=none;endFill=0;" parent="1" source="KU3A_nU0eoKDWbTwhIvI-71" target="KU3A_nU0eoKDWbTwhIvI-68" edge="1">
          <mxGeometry relative="1" as="geometry" />
        </mxCell>
        <mxCell id="KU3A_nU0eoKDWbTwhIvI-71" value="Trade" style="ellipse;shape=umlEntity;whiteSpace=wrap;html=1;fontFamily=Helvetica;fontSize=11;fontColor=default;labelBackgroundColor=default;" parent="1" vertex="1">
          <mxGeometry x="1290" y="1907" width="80" height="80" as="geometry" />
        </mxCell>
        <mxCell id="KU3A_nU0eoKDWbTwhIvI-72" style="edgeStyle=none;shape=connector;rounded=0;orthogonalLoop=1;jettySize=auto;html=1;strokeColor=default;align=center;verticalAlign=middle;fontFamily=Helvetica;fontSize=11;fontColor=default;labelBackgroundColor=default;endArrow=none;endFill=0;entryX=0.5;entryY=0.5;entryDx=0;entryDy=0;entryPerimeter=0;exitX=0.969;exitY=0.561;exitDx=0;exitDy=0;exitPerimeter=0;" parent="1" source="KU3A_nU0eoKDWbTwhIvI-68" target="KU3A_nU0eoKDWbTwhIvI-64" edge="1">
          <mxGeometry relative="1" as="geometry" />
        </mxCell>
        <mxCell id="KU3A_nU0eoKDWbTwhIvI-73" value="Trade" style="swimlane;fontStyle=1;align=center;verticalAlign=top;childLayout=stackLayout;horizontal=1;startSize=26;horizontalStack=0;resizeParent=1;resizeParentMax=0;resizeLast=0;collapsible=1;marginBottom=0;whiteSpace=wrap;html=1;fontFamily=Helvetica;fontSize=11;fontColor=default;labelBackgroundColor=default;" parent="1" vertex="1">
          <mxGeometry x="184" y="2178" width="160" height="112" as="geometry" />
        </mxCell>
        <mxCell id="KU3A_nU0eoKDWbTwhIvI-74" value="&lt;div&gt;+ cardsGiven: Card[]&lt;/div&gt;" style="text;strokeColor=none;fillColor=none;align=left;verticalAlign=top;spacingLeft=4;spacingRight=4;overflow=hidden;rotatable=0;points=[[0,0.5],[1,0.5]];portConstraint=eastwest;whiteSpace=wrap;html=1;fontFamily=Helvetica;fontSize=11;fontColor=default;labelBackgroundColor=default;" parent="KU3A_nU0eoKDWbTwhIvI-73" vertex="1">
          <mxGeometry y="26" width="160" height="26" as="geometry" />
        </mxCell>
        <mxCell id="wEIP7FNeAzmG4lm5_kcX-10" value="+ cardsReceived: Card[]" style="text;strokeColor=none;fillColor=none;align=left;verticalAlign=top;spacingLeft=4;spacingRight=4;overflow=hidden;rotatable=0;points=[[0,0.5],[1,0.5]];portConstraint=eastwest;whiteSpace=wrap;html=1;fontFamily=Helvetica;fontSize=11;fontColor=default;labelBackgroundColor=default;" vertex="1" parent="KU3A_nU0eoKDWbTwhIvI-73">
          <mxGeometry y="52" width="160" height="26" as="geometry" />
        </mxCell>
        <mxCell id="KU3A_nU0eoKDWbTwhIvI-75" value="" style="line;strokeWidth=1;fillColor=none;align=left;verticalAlign=middle;spacingTop=-1;spacingLeft=3;spacingRight=3;rotatable=0;labelPosition=right;points=[];portConstraint=eastwest;strokeColor=inherit;fontFamily=Helvetica;fontSize=11;fontColor=default;labelBackgroundColor=default;" parent="KU3A_nU0eoKDWbTwhIvI-73" vertex="1">
          <mxGeometry y="78" width="160" height="8" as="geometry" />
        </mxCell>
        <mxCell id="KU3A_nU0eoKDWbTwhIvI-76" value="+ saveTrade()" style="text;strokeColor=none;fillColor=none;align=left;verticalAlign=top;spacingLeft=4;spacingRight=4;overflow=hidden;rotatable=0;points=[[0,0.5],[1,0.5]];portConstraint=eastwest;whiteSpace=wrap;html=1;fontFamily=Helvetica;fontSize=11;fontColor=default;labelBackgroundColor=default;" parent="KU3A_nU0eoKDWbTwhIvI-73" vertex="1">
          <mxGeometry y="86" width="160" height="26" as="geometry" />
        </mxCell>
        <mxCell id="KU3A_nU0eoKDWbTwhIvI-77" value="&lt;div&gt;Card&lt;/div&gt;" style="swimlane;fontStyle=1;align=center;verticalAlign=top;childLayout=stackLayout;horizontal=1;startSize=26;horizontalStack=0;resizeParent=1;resizeParentMax=0;resizeLast=0;collapsible=1;marginBottom=0;whiteSpace=wrap;html=1;fontFamily=Helvetica;fontSize=11;fontColor=default;labelBackgroundColor=default;" parent="1" vertex="1">
          <mxGeometry x="483" y="1940" width="160" height="60" as="geometry" />
        </mxCell>
        <mxCell id="KU3A_nU0eoKDWbTwhIvI-78" value="+id: string" style="text;strokeColor=none;fillColor=none;align=left;verticalAlign=top;spacingLeft=4;spacingRight=4;overflow=hidden;rotatable=0;points=[[0,0.5],[1,0.5]];portConstraint=eastwest;whiteSpace=wrap;html=1;fontFamily=Helvetica;fontSize=11;fontColor=default;labelBackgroundColor=default;" parent="KU3A_nU0eoKDWbTwhIvI-77" vertex="1">
          <mxGeometry y="26" width="160" height="26" as="geometry" />
        </mxCell>
        <mxCell id="KU3A_nU0eoKDWbTwhIvI-79" value="" style="line;strokeWidth=1;fillColor=none;align=left;verticalAlign=middle;spacingTop=-1;spacingLeft=3;spacingRight=3;rotatable=0;labelPosition=right;points=[];portConstraint=eastwest;strokeColor=inherit;fontFamily=Helvetica;fontSize=11;fontColor=default;labelBackgroundColor=default;" parent="KU3A_nU0eoKDWbTwhIvI-77" vertex="1">
          <mxGeometry y="52" width="160" height="8" as="geometry" />
        </mxCell>
        <mxCell id="KU3A_nU0eoKDWbTwhIvI-82" value="User" style="ellipse;shape=umlEntity;whiteSpace=wrap;html=1;fontFamily=Helvetica;fontSize=11;fontColor=default;labelBackgroundColor=default;" parent="1" vertex="1">
          <mxGeometry x="1290" y="2047" width="80" height="80" as="geometry" />
        </mxCell>
        <mxCell id="KU3A_nU0eoKDWbTwhIvI-83" style="edgeStyle=none;shape=connector;rounded=0;orthogonalLoop=1;jettySize=auto;html=1;entryX=-0.01;entryY=0.491;entryDx=0;entryDy=0;entryPerimeter=0;strokeColor=default;align=center;verticalAlign=middle;fontFamily=Helvetica;fontSize=11;fontColor=default;labelBackgroundColor=default;endArrow=none;endFill=0;" parent="1" source="KU3A_nU0eoKDWbTwhIvI-56" target="KU3A_nU0eoKDWbTwhIvI-57" edge="1">
          <mxGeometry relative="1" as="geometry" />
        </mxCell>
        <mxCell id="KU3A_nU0eoKDWbTwhIvI-84" value="&lt;div&gt;POKEAPI&lt;/div&gt;&lt;div&gt;&lt;br&gt;&lt;/div&gt;" style="shape=umlActor;verticalLabelPosition=bottom;verticalAlign=top;html=1;outlineConnect=0;" parent="1" vertex="1">
          <mxGeometry x="1620" y="2230" width="30" height="60" as="geometry" />
        </mxCell>
        <mxCell id="KU3A_nU0eoKDWbTwhIvI-85" style="edgeStyle=none;shape=connector;rounded=0;orthogonalLoop=1;jettySize=auto;html=1;strokeColor=default;align=center;verticalAlign=middle;fontFamily=Helvetica;fontSize=11;fontColor=default;labelBackgroundColor=default;endArrow=none;endFill=0;" parent="1" source="KU3A_nU0eoKDWbTwhIvI-86" edge="1">
          <mxGeometry relative="1" as="geometry">
            <mxPoint x="1100" y="2260" as="targetPoint" />
          </mxGeometry>
        </mxCell>
        <mxCell id="KU3A_nU0eoKDWbTwhIvI-86" value="&lt;div&gt;RABBITMQ&lt;/div&gt;&lt;div&gt;users/new&lt;/div&gt;" style="shape=umlBoundary;whiteSpace=wrap;html=1;fontFamily=Helvetica;fontSize=11;fontColor=default;labelBackgroundColor=default;" parent="1" vertex="1">
          <mxGeometry x="920" y="2220" width="100" height="80" as="geometry" />
        </mxCell>
        <mxCell id="KU3A_nU0eoKDWbTwhIvI-87" value="&lt;div&gt;Login System&lt;/div&gt;&lt;div&gt;&lt;br&gt;&lt;/div&gt;" style="shape=umlActor;verticalLabelPosition=bottom;verticalAlign=top;html=1;outlineConnect=0;" parent="1" vertex="1">
          <mxGeometry x="817.5" y="2230" width="30" height="60" as="geometry" />
        </mxCell>
        <mxCell id="KU3A_nU0eoKDWbTwhIvI-88" style="edgeStyle=none;shape=connector;rounded=0;orthogonalLoop=1;jettySize=auto;html=1;entryX=0.025;entryY=0.494;entryDx=0;entryDy=0;entryPerimeter=0;strokeColor=default;align=center;verticalAlign=middle;fontFamily=Helvetica;fontSize=11;fontColor=default;labelBackgroundColor=default;endArrow=none;endFill=0;" parent="1" source="KU3A_nU0eoKDWbTwhIvI-87" target="KU3A_nU0eoKDWbTwhIvI-86" edge="1">
          <mxGeometry relative="1" as="geometry" />
        </mxCell>
        <mxCell id="KU3A_nU0eoKDWbTwhIvI-89" style="edgeStyle=none;shape=connector;rounded=0;orthogonalLoop=1;jettySize=auto;html=1;entryX=0;entryY=0.5;entryDx=0;entryDy=0;strokeColor=default;align=center;verticalAlign=middle;fontFamily=Helvetica;fontSize=11;fontColor=default;labelBackgroundColor=default;endArrow=none;endFill=0;" parent="1" source="KU3A_nU0eoKDWbTwhIvI-90" target="KU3A_nU0eoKDWbTwhIvI-92" edge="1">
          <mxGeometry relative="1" as="geometry" />
        </mxCell>
        <mxCell id="wEIP7FNeAzmG4lm5_kcX-2" style="rounded=0;orthogonalLoop=1;jettySize=auto;html=1;entryX=0;entryY=0.5;entryDx=0;entryDy=0;endArrow=none;startFill=0;" edge="1" parent="1" source="KU3A_nU0eoKDWbTwhIvI-90" target="KU3A_nU0eoKDWbTwhIvI-94">
          <mxGeometry relative="1" as="geometry" />
        </mxCell>
        <mxCell id="wEIP7FNeAzmG4lm5_kcX-3" style="edgeStyle=orthogonalEdgeStyle;rounded=0;orthogonalLoop=1;jettySize=auto;html=1;endArrow=none;startFill=0;" edge="1" parent="1" source="KU3A_nU0eoKDWbTwhIvI-90" target="KU3A_nU0eoKDWbTwhIvI-84">
          <mxGeometry relative="1" as="geometry" />
        </mxCell>
        <mxCell id="KU3A_nU0eoKDWbTwhIvI-90" value="Card control" style="ellipse;shape=umlControl;whiteSpace=wrap;html=1;fontFamily=Helvetica;fontSize=11;fontColor=default;labelBackgroundColor=default;" parent="1" vertex="1">
          <mxGeometry x="1100" y="2220" width="70" height="80" as="geometry" />
        </mxCell>
        <mxCell id="KU3A_nU0eoKDWbTwhIvI-92" value="User" style="ellipse;shape=umlEntity;whiteSpace=wrap;html=1;fontFamily=Helvetica;fontSize=11;fontColor=default;labelBackgroundColor=default;" parent="1" vertex="1">
          <mxGeometry x="1230" y="2166" width="80" height="80" as="geometry" />
        </mxCell>
        <mxCell id="KU3A_nU0eoKDWbTwhIvI-94" value="Card" style="ellipse;shape=umlEntity;whiteSpace=wrap;html=1;fontFamily=Helvetica;fontSize=11;fontColor=default;labelBackgroundColor=default;" parent="1" vertex="1">
          <mxGeometry x="1230" y="2320" width="80" height="80" as="geometry" />
        </mxCell>
        <mxCell id="KU3A_nU0eoKDWbTwhIvI-95" value="User" style="swimlane;fontStyle=1;align=center;verticalAlign=top;childLayout=stackLayout;horizontal=1;startSize=26;horizontalStack=0;resizeParent=1;resizeParentMax=0;resizeLast=0;collapsible=1;marginBottom=0;whiteSpace=wrap;html=1;fontFamily=Helvetica;fontSize=11;fontColor=default;labelBackgroundColor=default;" parent="1" vertex="1">
          <mxGeometry x="188" y="1950" width="160" height="138" as="geometry" />
        </mxCell>
        <mxCell id="wEIP7FNeAzmG4lm5_kcX-7" value="+username: string" style="text;strokeColor=none;fillColor=none;align=left;verticalAlign=top;spacingLeft=4;spacingRight=4;overflow=hidden;rotatable=0;points=[[0,0.5],[1,0.5]];portConstraint=eastwest;whiteSpace=wrap;html=1;fontFamily=Helvetica;fontSize=11;fontColor=default;labelBackgroundColor=default;" vertex="1" parent="KU3A_nU0eoKDWbTwhIvI-95">
          <mxGeometry y="26" width="160" height="26" as="geometry" />
        </mxCell>
        <mxCell id="KU3A_nU0eoKDWbTwhIvI-96" value="+id: string" style="text;strokeColor=none;fillColor=none;align=left;verticalAlign=top;spacingLeft=4;spacingRight=4;overflow=hidden;rotatable=0;points=[[0,0.5],[1,0.5]];portConstraint=eastwest;whiteSpace=wrap;html=1;fontFamily=Helvetica;fontSize=11;fontColor=default;labelBackgroundColor=default;" parent="KU3A_nU0eoKDWbTwhIvI-95" vertex="1">
          <mxGeometry y="52" width="160" height="26" as="geometry" />
        </mxCell>
        <mxCell id="wEIP7FNeAzmG4lm5_kcX-9" value="-cards: Card[]" style="text;strokeColor=none;fillColor=none;align=left;verticalAlign=top;spacingLeft=4;spacingRight=4;overflow=hidden;rotatable=0;points=[[0,0.5],[1,0.5]];portConstraint=eastwest;whiteSpace=wrap;html=1;fontFamily=Helvetica;fontSize=11;fontColor=default;labelBackgroundColor=default;" vertex="1" parent="KU3A_nU0eoKDWbTwhIvI-95">
          <mxGeometry y="78" width="160" height="26" as="geometry" />
        </mxCell>
        <mxCell id="KU3A_nU0eoKDWbTwhIvI-97" value="" style="line;strokeWidth=1;fillColor=none;align=left;verticalAlign=middle;spacingTop=-1;spacingLeft=3;spacingRight=3;rotatable=0;labelPosition=right;points=[];portConstraint=eastwest;strokeColor=inherit;fontFamily=Helvetica;fontSize=11;fontColor=default;labelBackgroundColor=default;" parent="KU3A_nU0eoKDWbTwhIvI-95" vertex="1">
          <mxGeometry y="104" width="160" height="8" as="geometry" />
        </mxCell>
        <mxCell id="KU3A_nU0eoKDWbTwhIvI-98" value="+getCards(): Card[] | []" style="text;strokeColor=none;fillColor=none;align=left;verticalAlign=top;spacingLeft=4;spacingRight=4;overflow=hidden;rotatable=0;points=[[0,0.5],[1,0.5]];portConstraint=eastwest;whiteSpace=wrap;html=1;fontFamily=Helvetica;fontSize=11;fontColor=default;labelBackgroundColor=default;" parent="KU3A_nU0eoKDWbTwhIvI-95" vertex="1">
          <mxGeometry y="112" width="160" height="26" as="geometry" />
        </mxCell>
        <mxCell id="KU3A_nU0eoKDWbTwhIvI-99" value="" style="endArrow=open;html=1;endSize=12;startArrow=diamondThin;startSize=14;startFill=0;align=left;verticalAlign=bottom;rounded=0;strokeColor=default;fontFamily=Helvetica;fontSize=11;fontColor=default;labelBackgroundColor=default;entryX=0.5;entryY=0;entryDx=0;entryDy=0;" parent="1" target="KU3A_nU0eoKDWbTwhIvI-73" edge="1">
          <mxGeometry x="-1" y="3" relative="1" as="geometry">
            <mxPoint x="264" y="2089" as="sourcePoint" />
            <mxPoint x="613" y="2010" as="targetPoint" />
          </mxGeometry>
        </mxCell>
        <mxCell id="KU3A_nU0eoKDWbTwhIvI-100" value="1+" style="endArrow=open;html=1;endSize=12;startArrow=diamondThin;startSize=14;startFill=0;align=left;verticalAlign=bottom;rounded=0;strokeColor=default;fontFamily=Helvetica;fontSize=11;fontColor=default;labelBackgroundColor=default;entryX=0.013;entryY=0.846;entryDx=0;entryDy=0;entryPerimeter=0;" parent="1" edge="1" target="KU3A_nU0eoKDWbTwhIvI-78">
          <mxGeometry x="-1" y="3" relative="1" as="geometry">
            <mxPoint x="350" y="1989" as="sourcePoint" />
            <mxPoint x="453" y="1990" as="targetPoint" />
          </mxGeometry>
        </mxCell>
        <mxCell id="wEIP7FNeAzmG4lm5_kcX-1" style="rounded=0;orthogonalLoop=1;jettySize=auto;html=1;entryX=0;entryY=0.3333333333333333;entryDx=0;entryDy=0;entryPerimeter=0;endArrow=none;startFill=0;" edge="1" parent="1" source="KU3A_nU0eoKDWbTwhIvI-2" target="KU3A_nU0eoKDWbTwhIvI-11">
          <mxGeometry relative="1" as="geometry" />
        </mxCell>
        <mxCell id="wEIP7FNeAzmG4lm5_kcX-4" value="DATABASE" style="shape=umlActor;verticalLabelPosition=bottom;verticalAlign=top;html=1;outlineConnect=0;" vertex="1" parent="1">
          <mxGeometry x="1510" y="2350" width="30" height="60" as="geometry" />
        </mxCell>
        <mxCell id="wEIP7FNeAzmG4lm5_kcX-11" style="rounded=0;orthogonalLoop=1;jettySize=auto;html=1;entryX=1.014;entryY=0.525;entryDx=0;entryDy=0;entryPerimeter=0;endArrow=none;startFill=0;" edge="1" parent="1" source="wEIP7FNeAzmG4lm5_kcX-4" target="KU3A_nU0eoKDWbTwhIvI-90">
          <mxGeometry relative="1" as="geometry" />
        </mxCell>
      </root>
    </mxGraphModel>
  </diagram>
</mxfile>
